<svg id="Capa_1" enable-background="new 0 0 512 512" height="512" viewBox="0 0 512 512" width="512" xmlns="http://www.w3.org/2000/svg"><g><g><path d="m261.294 401.883c40.481 0 73.298 32.817 73.298 73.298v10.995c0 10.12-8.204 18.324-18.324 18.324h-290.444c-10.12 0-18.325-8.204-18.325-18.324v-10.995c0-40.481 32.817-73.298 73.298-73.298z" fill="#cbb0f2"/><path d="m334.59 475.18v11c0 10.12-8.2 18.32-18.32 18.32h-30c10.12 0 18.32-8.2 18.32-18.32v-11c0-40.48-32.81-73.3-73.3-73.3h30c40.49 0 73.3 32.82 73.3 73.3z" fill="#b696ef"/><g fill="#ce845c"><path d="m268.703 283.69h25.118c15.434 0 27.945-12.511 27.945-27.945 0-15.434-12.511-27.945-27.945-27.945h-25.118z"/><path d="m73.39 227.8h-25.118c-15.434 0-27.945 12.511-27.945 27.945 0 15.434 12.511 27.945 27.945 27.945h25.118z"/><path d="m210.902 338.899v62.984c0 22.012-17.844 39.856-39.856 39.856-22.012 0-39.856-17.844-39.856-39.856v-62.984z"/></g><path d="m63.39 191.19v74.633c0 59.457 48.199 107.656 107.656 107.656 59.457 0 107.656-48.199 107.656-107.656v-74.633c0-59.457-48.199-107.656-107.656-107.656-59.457 0-107.656 48.199-107.656 107.656z" fill="#e29a6c"/><path d="m278.7 191.19v74.63c0 29.73-12.05 56.64-31.53 76.13-19.48 19.48-46.39 31.53-76.12 31.53-5.09 0-10.1-.35-15-1.04 23.73-3.3 44.98-14.35 61.12-30.49 19.48-19.49 31.53-46.4 31.53-76.13v-74.63c0-54.37-40.3-99.32-92.65-106.62 4.9-.69 9.91-1.04 15-1.04 59.45 0 107.65 48.2 107.65 107.66z" fill="#ce845c"/><path d="m238.39 401.88c0 18.6-7.54 35.44-19.72 47.62-12.19 12.19-29.03 19.73-47.62 19.73-37.2 0-67.35-30.15-67.35-67.35h27.49c0 11 4.46 20.97 11.67 28.18 7.22 7.22 17.18 11.68 28.19 11.68 22.01 0 39.85-17.85 39.85-39.86z" fill="#fff"/><path d="m504.5 76.5c0-21.539-17.461-39-39-39-1.266 0-2.517.063-3.752.184-1.973.193-3.899-.79-4.833-2.539-6.565-12.285-19.512-20.645-34.415-20.645-8.526 0-16.41 2.74-22.826 7.383-2.048 1.482-4.936 1.137-6.583-.781-7.152-8.326-17.754-13.602-29.591-13.602-11.837 0-22.439 5.276-29.591 13.602-1.647 1.918-4.535 2.263-6.583.781-6.417-4.643-14.3-7.383-22.826-7.383-14.903 0-27.85 8.36-34.415 20.646-.934 1.749-2.86 2.732-4.833 2.539-1.234-.121-2.485-.184-3.752-.184-21.539 0-39 17.461-39 39 0 10.031 3.792 19.171 10.016 26.08 1.765 1.96 1.765 4.881 0 6.841-6.224 6.908-10.016 16.049-10.016 26.08 0 21.539 17.461 39 39 39 1.266 0 2.517-.063 3.752-.184 1.973-.193 3.899.79 4.833 2.539 6.565 12.283 19.512 20.643 34.415 20.643 8.526 0 16.41-2.74 22.826-7.383 2.048-1.482 4.936-1.137 6.583.781 7.152 8.326 17.754 13.602 29.591 13.602 11.837 0 22.439-5.276 29.591-13.602 1.647-1.918 4.535-2.263 6.583-.781 6.417 4.643 14.3 7.383 22.826 7.383 14.903 0 27.85-8.36 34.415-20.646.934-1.749 2.86-2.732 4.833-2.539 1.234.121 2.485.184 3.752.184 21.539 0 39-17.461 39-39 0-10.031-3.792-19.171-10.016-26.08-1.765-1.96-1.765-4.881 0-6.841 6.224-6.907 10.016-16.047 10.016-26.078z" fill="#fcf1f2"/><path d="m501.83 121.29c1.72 4.4 2.67 9.19 2.67 14.21 0 10.77-4.36 20.52-11.42 27.58s-16.81 11.42-27.58 11.42c-1.27 0-2.52-.06-3.75-.18-1.97-.2-3.9.79-4.83 2.53-3.28 6.15-8.16 11.31-14.09 14.93-5.92 3.63-12.88 5.72-20.33 5.72-5.32 0-10.39-1.07-15-3 1.85-.77 3.63-1.68 5.33-2.72 5.93-3.62 10.81-8.78 14.09-14.93.93-1.74 2.86-2.73 4.83-2.53 1.23.12 2.48.18 3.75.18 10.77 0 20.52-4.36 27.58-11.42s11.42-16.81 11.42-27.58c0-5.02-.95-9.81-2.67-14.21-1.73-4.4-4.23-8.41-7.35-11.87-1.76-1.96-1.76-4.88 0-6.84 6.23-6.91 10.02-16.05 10.02-26.08 0-21.54-17.46-39-39-39-1.27 0-2.52.06-3.75.18-1.97.2-3.9-.79-4.83-2.53-4.23-7.91-11.09-14.18-19.42-17.65.91-.39 1.84-.74 2.79-1.05 3.84-1.27 7.95-1.95 12.21-1.95 14.9 0 27.85 8.36 34.42 20.65.93 1.74 2.86 2.73 4.83 2.53 1.23-.12 2.48-.18 3.75-.18 21.54 0 39 17.46 39 39 0 10.03-3.79 19.17-10.02 26.08-1.76 1.96-1.76 4.88 0 6.84 3.12 3.46 5.62 7.47 7.35 11.87z" fill="#f4e5e0"/><path d="m373.75 274.007c-11.046 0-20-8.954-20-20 0-11.046 8.954-20 20-20 11.046 0 20 8.954 20 20 0 11.046-8.954 20-20 20z" fill="#8ef0f0"/><path d="m411.256 91.914c0 30.033-40.495 54.628-47.756 54.628-7.277 0-47.756-24.595-47.756-54.628 0-14.611 11.844-26.455 26.455-26.455 7.565 0 14.386 3.177 19.207 8.268 1.134 1.197 3.054 1.197 4.188 0 4.821-5.091 11.642-8.268 19.207-8.268 14.611 0 26.455 11.844 26.455 26.455z" fill="#ff8d95"/><path d="m411.26 91.91c0 30.04-40.5 54.63-47.76 54.63-2.36 0-8.19-2.58-15-7.08 14.24-9.41 32.76-27.23 32.76-47.55 0-7.31-2.96-13.92-7.75-18.7-1.14-1.14-2.38-2.17-3.71-3.08 4.27-2.95 9.43-4.67 15-4.67 7.3 0 13.92 2.96 18.71 7.75 4.79 4.78 7.75 11.39 7.75 18.7z" fill="#ff738a"/></g><g><path d="m142.383 301.667c-3.157-2.682-7.891-2.295-10.572.861-2.681 3.157-2.295 7.89.862 10.571 11.25 9.554 24.763 14.331 38.303 14.331 13.527 0 27.08-4.77 38.416-14.308 3.169-2.667 3.577-7.398.91-10.567s-7.398-3.579-10.567-.91c-16.969 14.278-40.553 14.288-57.352.022z"/><path d="m512 76.5c0-25.64-20.86-46.5-46.5-46.5-.933 0-1.876.029-2.82.087-8.329-14.285-23.567-23.087-40.18-23.087-9.062 0-17.755 2.579-25.289 7.479-8.766-9.229-20.923-14.479-33.711-14.479s-24.944 5.249-33.711 14.479c-7.535-4.901-16.228-7.479-25.289-7.479-16.613 0-31.85 8.801-40.18 23.087-.943-.058-1.886-.087-2.82-.087-25.64 0-46.5 20.86-46.5 46.5 0 2.896.277 5.762.803 8.567-14.075-5.94-29.254-9.034-44.757-9.034-63.498 0-115.156 51.659-115.156 115.156v1.61c0 4.142 3.358 7.5 7.5 7.5s7.5-3.358 7.5-7.5v-1.61c0-55.227 44.93-100.156 100.157-100.156 19.201 0 37.826 5.446 53.91 15.742-6.436 8.174-9.957 18.256-9.957 28.725 0 25.64 20.86 46.5 46.5 46.5.933 0 1.876-.029 2.82-.087 1.938 3.324 4.263 6.336 6.88 9.025 0 .084.003.168.003.252v74.633c0 55.227-44.93 100.157-100.157 100.157s-100.156-44.93-100.156-100.157v-38.023c0-4.142-3.358-7.5-7.5-7.5h-15.118c-19.544 0-35.445 15.901-35.445 35.445s15.9 35.445 35.445 35.445h10.433c8.016 35.526 32.508 64.872 64.986 79.584v23.609h-42.893c-44.552 0-80.798 36.245-80.798 80.798v10.995c0 14.239 11.585 25.824 25.825 25.824h225.034c4.142 0 7.5-3.358 7.5-7.5s-3.358-7.5-7.5-7.5h-225.034c-5.969 0-10.825-4.856-10.825-10.825v-10.995c0-36.281 29.517-65.798 65.798-65.798h15.782c3.775 37.759 35.729 67.342 74.466 67.342s70.691-29.583 74.466-67.342h15.782c36.281 0 65.798 29.517 65.798 65.798v10.995c0 5.969-4.856 10.825-10.824 10.825h-30.41c-4.142 0-7.5 3.358-7.5 7.5s3.358 7.5 7.5 7.5h30.41c14.24 0 25.824-11.585 25.824-25.825v-10.995c0-44.552-36.246-80.798-80.798-80.798h-42.893v-23.595c32.48-14.712 56.962-44.071 64.98-79.598h10.439c19.544 0 35.445-15.901 35.445-35.445s-15.9-35.445-35.445-35.445h-7.618v-19.055c5.684 2.432 11.885 3.755 18.297 3.755 9.062 0 17.755-2.579 25.289-7.479 8.767 9.23 20.924 14.48 33.712 14.48s24.944-5.249 33.711-14.479c7.534 4.9 16.228 7.479 25.289 7.479 16.613 0 31.85-8.801 40.18-23.087.943.058 1.887.087 2.82.087 25.64 0 46.5-20.86 46.5-46.5 0-10.8-3.738-21.194-10.567-29.5 6.829-8.306 10.567-18.7 10.567-29.5zm-463.728 199.69c-11.273 0-20.445-9.172-20.445-20.445s9.172-20.445 20.445-20.445h7.618v12.945h-8.076c-4.142 0-7.5 3.358-7.5 7.5s3.358 7.5 7.5 7.5h8.076v2.578c0 3.492.157 6.953.462 10.367zm122.774 185.535c-30.456 0-55.652-22.875-59.356-52.342h12.6c3.606 22.56 23.196 39.856 46.756 39.856s43.15-17.296 46.755-39.856h12.6c-3.703 29.467-28.899 52.342-59.355 52.342zm32.356-59.842c0 17.841-14.515 32.356-32.356 32.356s-32.355-14.515-32.355-32.356v-25.556c10.271 3.013 21.123 4.653 32.356 4.653 11.23 0 22.086-1.623 32.355-4.634zm90.418-166.583c11.273 0 20.445 9.172 20.445 20.445s-9.171 20.445-20.445 20.445h-8.089c.306-3.416.472-6.872.472-10.367v-2.578h8.076c4.142 0 7.5-3.358 7.5-7.5s-3.358-7.5-7.5-7.5h-8.076v-12.945zm195.092-120.86c5.216 5.79 8.088 13.269 8.088 21.06 0 17.369-14.131 31.5-31.5 31.5-.997 0-2.013-.05-3.02-.148-5.039-.491-9.817 2.045-12.179 6.468-5.499 10.288-16.152 16.68-27.801 16.68-6.669 0-13.042-2.061-18.431-5.96-5.182-3.748-12.501-2.88-16.668 1.971-5.998 6.984-14.71 10.989-23.901 10.989s-17.903-4.005-23.901-10.988c-2.425-2.824-5.918-4.298-9.437-4.298-2.527 0-5.067.76-7.232 2.327-5.387 3.899-11.76 5.959-18.43 5.959-11.649 0-22.302-6.392-27.8-16.679-2.363-4.423-7.135-6.963-12.178-6.469-1.009.099-2.025.148-3.022.148-17.369 0-31.5-14.131-31.5-31.5 0-7.791 2.873-15.27 8.088-21.06 4.334-4.812 4.334-12.068 0-16.88-5.215-5.79-8.088-13.269-8.088-21.06 0-17.369 14.131-31.5 31.5-31.5.997 0 2.013.05 3.02.148 5.037.487 9.817-2.045 12.179-6.468 5.499-10.288 16.152-16.68 27.801-16.68 6.669 0 13.042 2.061 18.43 5.959 5.179 3.747 12.501 2.882 16.669-1.97 5.998-6.984 14.71-10.989 23.901-10.989s17.903 4.005 23.901 10.988c4.167 4.852 11.488 5.718 16.669 1.971 5.388-3.898 11.761-5.959 18.43-5.959 11.649 0 22.302 6.392 27.8 16.679 2.363 4.423 7.138 6.969 12.178 6.469 1.009-.098 2.025-.148 3.022-.148 17.369 0 31.5 14.131 31.5 31.5 0 7.791-2.873 15.27-8.088 21.06-4.335 4.812-4.335 12.068 0 16.88z"/><path d="m373.75 226.507c-15.164 0-27.5 12.336-27.5 27.5s12.336 27.5 27.5 27.5 27.5-12.336 27.5-27.5-12.336-27.5-27.5-27.5zm0 40c-6.893 0-12.5-5.607-12.5-12.5s5.607-12.5 12.5-12.5 12.5 5.607 12.5 12.5-5.607 12.5-12.5 12.5z"/><path d="m384.801 57.958c-7.755 0-15.303 2.7-21.301 7.521-5.998-4.821-13.546-7.521-21.301-7.521-18.723 0-33.955 15.232-33.955 33.955 0 18.954 12.855 34.475 23.639 44.157 9.703 8.712 24.082 17.971 31.618 17.971 7.53 0 21.907-9.259 31.611-17.971 10.787-9.683 23.646-25.205 23.646-44.157-.002-18.722-15.234-33.955-33.957-33.955zm-21.302 81.017c-7.862-1.976-40.255-23.545-40.255-47.061 0-10.452 8.503-18.955 18.955-18.955 5.256 0 10.143 2.104 13.761 5.925 3.89 4.28 11.191 4.28 15.08 0 3.618-3.821 8.505-5.925 13.761-5.925 10.452 0 18.955 8.503 18.955 18.955 0 23.501-32.395 45.081-40.257 47.061z"/><path d="m221.046 279c11.821 0 22.615-5.996 28.873-16.039 2.191-3.515 1.117-8.141-2.399-10.332-3.515-2.19-8.141-1.116-10.332 2.399-3.5 5.617-9.535 8.971-16.142 8.971s-12.642-3.354-16.143-8.972c-2.19-3.516-6.816-4.59-10.332-2.399-3.516 2.19-4.59 6.816-2.399 10.332 6.26 10.044 17.053 16.04 28.874 16.04z"/><path d="m147.52 252.63c-3.515-2.19-8.141-1.116-10.332 2.399-3.5 5.617-9.535 8.971-16.142 8.971s-12.642-3.354-16.143-8.972c-2.19-3.516-6.815-4.59-10.332-2.399-3.516 2.19-4.59 6.816-2.399 10.332 6.26 10.043 17.053 16.039 28.874 16.039s22.615-5.996 28.873-16.039c2.191-3.515 1.117-8.141-2.399-10.331z"/></g></g></svg>